<svg xmlns="http://www.w3.org/2000/svg" width="80" height="80" viewBox="0 0 200 219">
<g transform="translate(0.000000,259.000000) scale(0.100000,-0.100000)"
fill="#6B21A8" stroke="none">
<path d="M0 1604 l0 -987 20 26 c36 45 90 53 151 21 17 -8 39 -12 49 -9 11 3
58 56 106 118 48 62 91 117 96 124 6 7 7 26 3 43 -5 24 -10 29 -20 20 -17 -14
-41 10 -50 52 -6 24 -3 35 9 44 24 17 11 68 -15 61 -23 -6 -34 7 -47 57 -10
34 -9 39 9 43 22 6 22 8 9 33 -6 11 -17 16 -29 13 -14 -3 -21 3 -30 28 -15 43
-14 60 4 73 13 9 14 17 5 42 -9 25 -15 30 -34 27 -19 -4 -24 2 -35 36 -13 45
-9 61 17 61 14 1 13 4 -6 20 -19 15 -33 18 -68 13 -71 -9 -117 27 -107 87 18
116 271 119 349 3 12 -18 54 -128 93 -245 39 -117 79 -233 88 -257 l17 -44 24
29 c57 70 56 60 18 201 -19 70 -60 207 -91 303 -72 226 -96 320 -99 394 -6
147 44 276 149 385 75 78 138 116 245 148 l75 22 -452 0 -453 1 0 -986z"/>
<path d="M1170 2567 c171 -51 292 -157 357 -312 63 -151 53 -257 -62 -615 -31
-96 -72 -233 -91 -304 l-35 -128 27 -39 c14 -21 32 -43 39 -49 14 -12 19 0
121 303 36 108 76 212 88 230 12 18 45 44 76 60 83 42 201 35 249 -16 62 -67
8 -147 -89 -134 -30 4 -46 0 -63 -14 -18 -15 -19 -18 -5 -19 26 0 30 -16 17
-61 -11 -34 -16 -40 -35 -36 -18 3 -25 -2 -34 -26 -13 -40 -13 -47 5 -47 18 0
19 -25 4 -69 -10 -27 -16 -32 -35 -28 -13 2 -24 1 -24 -4 0 -4 -3 -14 -6 -22
-3 -9 2 -16 15 -20 18 -4 19 -9 10 -43 -11 -42 -33 -66 -54 -58 -20 8 -29 -46
-10 -60 14 -10 15 -18 6 -53 -12 -42 -31 -59 -49 -41 -13 13 -27 -48 -14 -65
5 -7 48 -62 96 -123 47 -62 93 -115 102 -118 8 -3 32 1 52 10 69 30 122 20
156 -28 15 -20 16 67 16 965 l0 987 -452 -1 -453 0 75 -22z"/>
<path d="M614 754 c3 -7 -7 -28 -21 -49 -20 -29 -29 -36 -48 -31 -17 4 -27 0
-39 -19 -9 -14 -12 -25 -7 -25 21 0 18 -31 -7 -62 -27 -33 -43 -40 -58 -25
-13 12 -55 -34 -44 -48 16 -19 3 -40 -37 -59 -35 -16 -38 -17 -49 -1 -15 20
-74 12 -74 -10 0 -18 -28 -26 -64 -19 -39 7 -48 13 -42 29 3 8 -11 20 -35 31
-22 10 -51 31 -65 47 l-24 29 0 -271 0 -271 1000 0 1000 0 0 271 0 271 -24
-29 c-14 -16 -43 -37 -65 -47 -24 -11 -38 -23 -35 -31 7 -18 -9 -26 -58 -30
-32 -3 -41 0 -45 15 -7 27 -61 37 -77 15 -11 -16 -14 -15 -49 1 -39 19 -54 41
-37 58 7 7 3 17 -11 33 -17 17 -26 20 -41 12 -15 -8 -23 -5 -39 13 -35 41 -40
56 -25 70 21 20 -8 60 -39 52 -19 -5 -28 2 -49 32 -15 23 -22 42 -17 48 6 8
-12 11 -59 12 -68 1 -68 1 -58 -22 6 -12 16 -20 23 -17 17 6 31 -22 34 -69 2
-32 -1 -38 -17 -38 -26 0 -40 -60 -17 -76 19 -14 19 -25 -2 -63 -18 -30 -53
-43 -53 -19 0 6 -13 -1 -29 -16 -108 -103 -254 22 -161 139 17 21 30 46 30 57
0 24 -75 128 -84 117 -54 -71 -76 -105 -76 -119 0 -10 14 -34 30 -55 94 -118
-53 -243 -162 -138 -15 15 -28 21 -28 15 0 -24 -35 -11 -52 19 -22 38 -22 49
-3 63 23 16 9 76 -17 76 -16 0 -19 6 -17 38 3 47 17 75 34 69 7 -3 17 5 23 18
l11 24 -64 -2 c-44 -1 -64 -6 -61 -13z"/>
</g>
</svg>
